<svg width="201" height="178" viewBox="0 0 201 178" fill="none" xmlns="http://www.w3.org/2000/svg">
<g clip-path="url(#clip0_775_121)">
<path d="M115.985 148.311C148.255 148.311 174.416 122.205 174.416 90.0015C174.416 57.798 148.255 31.6919 115.985 31.6919C83.7142 31.6919 57.5537 57.798 57.5537 90.0015C57.5537 122.205 83.7142 148.311 115.985 148.311Z" fill="white"/>
<path d="M115.985 140.996C144.207 140.996 167.086 118.165 167.086 90.0015C167.086 61.8378 144.207 39.0066 115.985 39.0066C87.7626 39.0066 64.8838 61.8378 64.8838 90.0015C64.8838 118.165 87.7626 140.996 115.985 140.996Z" stroke="#03894E" stroke-width="4" stroke-miterlimit="10"/>
<path d="M135.67 75.8618C136.547 76.7372 137.038 77.85 137.112 78.9331C137.201 80.031 136.845 81.0993 136.042 81.8856L113.383 104.497C112.61 105.269 111.539 105.625 110.439 105.551C109.339 105.491 108.224 105.002 107.347 104.126L96.2848 93.0876C94.5007 91.3072 94.352 88.6068 95.9131 87.0638C96.7011 86.2774 97.7716 85.9213 98.857 85.9807C99.9572 86.0697 101.072 86.5593 101.964 87.4347L109.815 95.2686L129.649 75.476C131.225 73.9033 133.916 74.0814 135.685 75.847L135.67 75.8618Z" fill="#03894E"/>
<path d="M50.3131 108.681C50.3131 108.681 46.3434 118.904 32.1444 117.747C32.0255 117.747 31.9214 117.732 31.8025 117.717C31.4903 117.687 31.1929 117.643 30.8807 117.584C30.4346 117.509 29.9886 117.406 29.5426 117.302C29.0073 117.168 28.4721 117.005 27.9368 116.827C27.357 116.619 26.7771 116.382 26.227 116.1C25.6471 115.803 25.0822 115.462 24.5618 115.076C24.0414 114.69 23.5359 114.216 23.1047 113.711C22.6736 113.207 22.287 112.583 22.0194 111.945C21.722 111.248 21.5287 110.506 21.4544 109.75C21.3652 108.859 21.4098 107.939 21.5585 107.049C21.6774 106.337 21.7369 105.595 22.064 104.942C22.1086 104.839 22.1532 104.75 22.2424 104.675C22.3465 104.571 22.3911 104.542 22.5249 104.468C22.6884 104.379 22.8668 104.379 23.0452 104.334C23.3426 104.26 23.64 104.215 23.9373 104.156C24.309 104.097 24.6659 104.052 25.0376 104.037C25.4539 104.008 25.8702 104.008 26.2716 104.037C26.7028 104.067 27.1488 104.126 27.5651 104.23C27.9814 104.334 28.4423 104.482 28.8438 104.675C29.2452 104.868 29.6764 105.15 30.0332 105.462C30.4198 105.803 30.7617 106.204 31.0442 106.634C31.3713 107.138 31.6241 107.702 31.8025 108.281C32.0255 108.993 32.1593 109.72 32.2337 110.462C32.3229 111.382 32.3229 112.316 32.2634 113.236C32.189 114.394 32.0255 115.551 31.8173 116.693C31.6241 117.717 31.3862 118.726 31.1334 119.72C31.1334 119.72 24.8591 137.035 0.237793 127.969" stroke="#3A4BCA" stroke-width="2" stroke-miterlimit="10"/>
<path d="M159.89 144.008C159.89 144.008 177.078 147.525 175.308 164.127" stroke="#C17B33" stroke-width="2" stroke-miterlimit="10"/>
<path d="M167.934 38.2796C167.934 38.2796 187.321 38.5021 189.626 26.7364C191.945 14.9706 190.726 12.5521 200.747 9.03577" stroke="#C95D3C" stroke-width="2" stroke-miterlimit="10"/>
<path d="M134.02 178C137.592 178 140.487 175.11 140.487 171.546C140.487 167.981 137.592 165.092 134.02 165.092C130.448 165.092 127.552 167.981 127.552 171.546C127.552 175.11 130.448 178 134.02 178Z" fill="#3A4BCA"/>
<path d="M115.985 169.083C118.202 169.083 119.999 167.289 119.999 165.077C119.999 162.864 118.202 161.071 115.985 161.071C113.768 161.071 111.971 162.864 111.971 165.077C111.971 167.289 113.768 169.083 115.985 169.083Z" fill="white"/>
<path d="M115.286 21.5286C117.626 21.5286 119.524 19.6354 119.524 17.3C119.524 14.9646 117.626 13.0714 115.286 13.0714C112.946 13.0714 111.049 14.9646 111.049 17.3C111.049 19.6354 112.946 21.5286 115.286 21.5286Z" fill="#3A4BCA"/>
<path d="M98.099 13.6501C101.876 13.6501 104.938 10.5944 104.938 6.82504C104.938 3.05567 101.876 0 98.099 0C94.3218 0 91.2598 3.05567 91.2598 6.82504C91.2598 10.5944 94.3218 13.6501 98.099 13.6501Z" fill="white"/>
<path d="M56.6171 159.617C60.4682 159.617 63.5902 156.501 63.5902 152.658C63.5902 148.815 60.4682 145.7 56.6171 145.7C52.766 145.7 49.644 148.815 49.644 152.658C49.644 156.501 52.766 159.617 56.6171 159.617Z" stroke="#77EE9C" stroke-width="2" stroke-miterlimit="10"/>
<path d="M43.3996 70.0012C46.6923 70.0012 49.3616 67.3374 49.3616 64.0515C49.3616 60.7656 46.6923 58.1019 43.3996 58.1019C40.1068 58.1019 37.4375 60.7656 37.4375 64.0515C37.4375 67.3374 40.1068 70.0012 43.3996 70.0012Z" stroke="#F7C78A" stroke-width="2" stroke-miterlimit="10"/>
<path d="M187.232 90.0015C190.525 90.0015 193.194 87.3377 193.194 84.0518C193.194 80.7659 190.525 78.1022 187.232 78.1022C183.939 78.1022 181.27 80.7659 181.27 84.0518C181.27 87.3377 183.939 90.0015 187.232 90.0015Z" stroke="#DFA65B" stroke-width="2" stroke-miterlimit="10"/>
</g>
<defs>
<clipPath id="clip0_775_121">
<rect width="201" height="178" fill="white"/>
</clipPath>
</defs>
</svg>
